<svg height="512pt" viewBox="0 0 512 512" width="512pt" xmlns="http://www.w3.org/2000/svg"><path d="m346 0h-331c-8.402344 0-15 6.597656-15 15v211c0 8.402344 6.597656 15 15 15h331c8.402344 0 15-6.597656 15-15v-211c0-8.402344-6.597656-15-15-15zm0 0" fill="#7c8388"/><path d="m361 15v211c0 8.402344-6.597656 15-15 15h-120v-241h120c8.402344 0 15 6.597656 15 15zm0 0" fill="#575f64"/><path d="m30 30v181h301v-181zm0 0" fill="#faecd8"/><path d="m226 30h105v181h-105zm0 0" fill="#f4d7af"/><path d="m512 271v226c0 8.402344-6.597656 15-15 15h-61l-15-8.699219-90-52.300781v-180c0-49.800781 40.199219-90 90-90 24.902344 0 47.402344 10.199219 63.601562 26.398438 16.199219 16.199218 27.398438 38.703124 27.398438 63.601562zm0 0" fill="#ff637b"/><path d="m512 271v226c0 8.402344-6.597656 15-15 15h-61l-15-8.699219v-322.300781c24.902344 0 47.402344 10.199219 63.601562 26.398438 16.199219 16.199218 27.398438 38.703124 27.398438 63.601562zm0 0" fill="#e63950"/><path d="m376 271c-33 0-60 27-60 60s27 60 60 60 60-27 60-60-27-60-60-60zm0 0" fill="#7c8388"/><path d="m451 466v31c0 8.285156-6.714844 15-15 15h-135l-30-18.75 30-27.25c0-41.398438 33.601562-75 75-75 20.699219 0 39.601562 8.402344 53.101562 21.898438 13.496094 13.5 21.898438 32.402343 21.898438 53.101562zm0 0" fill="#64e1dc"/><path d="m376 391v-120c33 0 60 27 60 60s-27 60-60 60zm0 0" fill="#575f64"/><path d="m451 466v31c0 8.285156-6.714844 15-15 15h-60v-121c20.699219 0 39.601562 8.402344 53.101562 21.898438 13.496094 13.5 21.898438 32.402343 21.898438 53.101562zm0 0" fill="#00c8c8"/><path d="m226 271c-33 0-60 27-60 60s27 60 60 60 60-27 60-60-27-60-60-60zm0 0" fill="#7c8388"/><path d="m301 466v46h-150l-30-18.75 30-27.25c0-41.398438 33.601562-75 75-75 20.699219 0 39.601562 8.402344 53.101562 21.898438 13.496094 13.5 21.898438 32.402343 21.898438 53.101562zm0 0" fill="#64e1dc"/><path d="m226 391v-120c33 0 60 27 60 60s-27 60-60 60zm0 0" fill="#575f64"/><path d="m301 466v46h-75v-121c20.699219 0 39.601562 8.402344 53.101562 21.898438 13.496094 13.5 21.898438 32.402343 21.898438 53.101562zm0 0" fill="#00c8c8"/><path d="m76 181c-8.289062 0-15-6.710938-15-15v-30c0-8.289062 6.710938-15 15-15s15 6.710938 15 15v30c0 8.289062-6.710938 15-15 15zm0 0" fill="#00c8c8"/><path d="m136 181c-8.289062 0-15-6.710938-15-15v-60c0-8.289062 6.710938-15 15-15s15 6.710938 15 15v60c0 8.289062-6.710938 15-15 15zm0 0" fill="#7fe881"/><path d="m196 181c-8.289062 0-15-6.710938-15-15v-90c0-8.289062 6.710938-15 15-15s15 6.710938 15 15v90c0 8.289062-6.710938 15-15 15zm0 0" fill="#ff637b"/><path d="m76 271c-33 0-61 27-61 60s28 60 61 60 60-27 60-60-27-60-60-60zm0 0" fill="#7c8388"/><path d="m151 466v46h-136c-8.285156 0-15-6.714844-15-15v-26.207031c0-43.75 36.890625-82.273438 80.5625-79.65625 18.902344 1.132812 36.035156 9.261719 48.539062 21.761719 13.496094 13.5 21.898438 32.402343 21.898438 53.101562zm0 0" fill="#64e1dc"/><path d="m76 391v-120c33 0 60 27 60 60s-27 60-60 60zm0 0" fill="#575f64"/><path d="m151 466v46h-75v-121c20.699219 0 39.601562 8.402344 53.101562 21.898438 13.496094 13.5 21.898438 32.402343 21.898438 53.101562zm0 0" fill="#00c8c8"/><path d="m421 61c-33 0-60 27-60 60s27 60 60 60 60-27 60-60-27-60-60-60zm0 0" fill="#ffbd86"/><path d="m421 181v-120c33 0 60 27 60 60s-27 60-60 60zm0 0" fill="#f6a96c"/></svg>